# xmcd
#
# Track frame offsets:
# 150
# 10014
# 21434
# 35487
# 48429
# 67160
# 78297
# 88690
# 101048
# 114523
# 131995
# 152970
# 165559
# 177686
# 204391
#
# Disc length: 2887 seconds
#
# Revision: 1
# Processed by: cddbd v1.5.2PL0 Copyright (c) Steve Scherf et al.
# Submitted via: CedeCatalogueitor 2.6.0.6 http://personales.ya.com/cdcatalogueitor
#
DISCID=cf0b450f
DTITLE=Van Morrison - Pay The Devil
DYEAR=2006
DGENRE=
TTITLE0=There Stands The Glass
TTITLE1=Half As Much
TTITLE2=Things Have Gone To Pieces
TTITLE3=Big Blue Diamonds
TTITLE4=Playhouse
TTITLE5=Your Cheatin' Heart
TTITLE6=My Bucket's Got A Hole In It
TTITLE7=Back Street Affair
TTITLE8=Pay The Devil
TTITLE9=What Am I Living For?
TTITLE10=This Has Got To Stop
TTITLE11=Once A Day
TTITLE12=More And More
TTITLE13=Till I Gain Control Again
TTITLE14=Don't You Make Me High
EXTD=
EXTT0=
EXTT1=
EXTT2=
EXTT3=
EXTT4=
EXTT5=
EXTT6=
EXTT7=
EXTT8=
EXTT9=
EXTT10=
EXTT11=
EXTT12=
EXTT13=
EXTT14=
PLAYORDER=
